<?plantuml 1.2026.2beta3?><svg xmlns="http://www.w3.org/2000/svg" xmlns:xlink="http://www.w3.org/1999/xlink" contentStyleType="text/css" data-diagram-type="ACTIVITY" height="982px" preserveAspectRatio="none" style="width:846px;height:982px;background:#FFFFFF;" version="1.1" viewBox="0 0 846 982" width="846px" zoomAndPan="magnify"><title>Orvex Init &#8212; PRD &amp; Architecture Generation</title><defs/><g><g class="title" data-source-line="13"><text fill="#000000" font-family="Verdana" font-size="22" font-weight="bold" lengthAdjust="spacing" textLength="546.0146" x="148.6213" y="35.4209">Orvex Init &#8212; PRD &amp; Architecture Generation</text></g><ellipse cx="369.0762" cy="61.6094" fill="#FFFFFF" rx="10" ry="10" style="stroke:#000000;stroke-width:1;"/><rect fill="#F0F5FF" height="33.9688" rx="4" ry="4" style="stroke:#4472C4;stroke-width:1;" width="177.7695" x="280.1914" y="91.6094"/><text fill="#000000" font-family="Verdana" font-size="12" lengthAdjust="spacing" textLength="157.7695" x="290.1914" y="112.748">User describes the project</text><polygon fill="#FFFFFF" points="369.0762,145.5781,369.0762,145.5781,381.0762,157.5781,369.0762,169.5781,369.0762,169.5781,357.0762,157.5781,369.0762,145.5781" style="stroke:#4472C4;stroke-width:1;"/><text fill="#000000" font-family="Verdana" font-size="11" lengthAdjust="spacing" textLength="124.3623" x="232.7139" y="154.9839">PRD.md already exists</text><text fill="#000000" font-family="Verdana" font-size="11" lengthAdjust="spacing" textLength="69.7813" x="381.0762" y="154.9839">fresh project</text><rect fill="#F0F5FF" height="33.9688" rx="4" ry="4" style="stroke:#4472C4;stroke-width:1;" width="128.7734" x="207.4673" y="179.5781"/><text fill="#000000" font-family="Verdana" font-size="12" lengthAdjust="spacing" textLength="108.7734" x="217.4673" y="200.7168">Load existing PRD</text><path d="M596.356,179.5781 L596.356,241.1094 L576.356,245.1094 L596.356,249.1094 L596.356,310.6406 A0,0 0 0 0 596.356,310.6406 L839.2573,310.6406 A0,0 0 0 0 839.2573,310.6406 L839.2573,189.5781 L829.2573,179.5781 L596.356,179.5781 A0,0 0 0 0 596.356,179.5781" fill="#E2EFDA" style="stroke:#70AD47;stroke-width:1;"/><path d="M829.2573,179.5781 L829.2573,189.5781 L839.2573,189.5781 L829.2573,179.5781" fill="#E2EFDA" style="stroke:#70AD47;stroke-width:1;"/><text fill="#000000" font-family="Verdana" font-size="13" lengthAdjust="spacing" textLength="128.9971" x="602.356" y="196.645">3 agents per round:</text><text fill="#000000" font-family="Verdana" font-size="13" lengthAdjust="spacing" textLength="122.7891" x="602.356" y="211.7778">&#8226; Product Manager</text><text fill="#000000" font-family="Verdana" font-size="13" lengthAdjust="spacing" textLength="108.1958" x="602.356" y="226.9106">&#8226; UX Researcher</text><text fill="#000000" font-family="Verdana" font-size="13" lengthAdjust="spacing" textLength="121.5322" x="602.356" y="242.0435">&#8226; Business Analyst</text><text fill="#000000" font-family="Verdana" font-size="13" lengthAdjust="spacing" textLength="4.1323" x="602.356" y="257.1763">&#160;</text><text fill="#000000" font-family="Verdana" font-size="13" lengthAdjust="spacing" textLength="206.8511" x="602.356" y="272.3091">Round 1: propose requirements</text><text fill="#000000" font-family="Verdana" font-size="13" lengthAdjust="spacing" textLength="221.9014" x="602.356" y="287.4419">Round 2+: respond to each other,</text><text fill="#000000" font-family="Verdana" font-size="13" lengthAdjust="spacing" textLength="100.166" x="602.356" y="302.5747">refine positions</text><rect fill="#F0F5FF" height="47.9375" rx="4" ry="4" style="stroke:#4472C4;stroke-width:1;" width="220.1152" x="356.2407" y="221.1406"/><text fill="#000000" font-family="Verdana" font-size="12" lengthAdjust="spacing" textLength="144.4629" x="366.2407" y="242.2793">PRD &#8212; N debate rounds</text><text fill="#000000" font-family="Verdana" font-size="12" lengthAdjust="spacing" textLength="200.1152" x="366.2407" y="256.248">(agents run in parallel per round)</text><rect fill="#F0F5FF" height="47.9375" rx="4" ry="4" style="stroke:#4472C4;stroke-width:1;" width="133.291" x="399.6528" y="330.6406"/><text fill="#000000" font-family="Verdana" font-size="12" lengthAdjust="spacing" textLength="113.291" x="409.6528" y="351.7793">Synthesis (Sonnet)</text><text fill="#000000" font-family="Verdana" font-size="12" lengthAdjust="spacing" textLength="61.8047" x="409.6528" y="365.748">&#8594; PRD.md</text><polygon fill="#FFFFFF" points="369.0762,384.5781,381.0762,396.5781,369.0762,408.5781,357.0762,396.5781,369.0762,384.5781" style="stroke:#4472C4;stroke-width:1;"/><path d="M508.0693,418.5781 L508.0693,442.2773 L488.0693,446.2773 L508.0693,450.2773 L508.0693,473.9766 A0,0 0 0 0 508.0693,473.9766 L692.75,473.9766 A0,0 0 0 0 692.75,473.9766 L692.75,428.5781 L682.75,418.5781 L508.0693,418.5781 A0,0 0 0 0 508.0693,418.5781" fill="#E2EFDA" style="stroke:#70AD47;stroke-width:1;"/><path d="M682.75,418.5781 L682.75,428.5781 L692.75,428.5781 L682.75,418.5781" fill="#E2EFDA" style="stroke:#70AD47;stroke-width:1;"/><text fill="#000000" font-family="Verdana" font-size="13" lengthAdjust="spacing" textLength="110.481" x="514.0693" y="435.645">Per requirement:</text><text fill="#000000" font-family="Verdana" font-size="13" lengthAdjust="spacing" textLength="145.0884" x="514.0693" y="450.7778">accept &#183; edit manually</text><text fill="#000000" font-family="Verdana" font-size="13" lengthAdjust="spacing" textLength="163.6807" x="514.0693" y="465.9106">&#183; or rewrite via AI prompt</text><rect fill="#F0F5FF" height="33.9688" rx="4" ry="4" style="stroke:#4472C4;stroke-width:1;" width="237.9863" x="250.083" y="429.293"/><text fill="#000000" font-family="Verdana" font-size="12" lengthAdjust="spacing" textLength="217.9863" x="260.083" y="450.4316">User reviews each REQ interactively</text><polygon fill="#FFFFFF" points="369.0762,493.9766,369.0762,493.9766,381.0762,505.9766,369.0762,517.9766,369.0762,517.9766,357.0762,505.9766,369.0762,493.9766" style="stroke:#4472C4;stroke-width:1;"/><text fill="#000000" font-family="Verdana" font-size="11" lengthAdjust="spacing" textLength="126.21" x="230.8662" y="503.3823">generate architecture?</text><text fill="#000000" font-family="Verdana" font-size="11" lengthAdjust="spacing" textLength="22.1396" x="381.0762" y="503.3823">skip</text><path d="M255.2617,527.9766 L255.2617,581.9414 L235.2617,585.9414 L255.2617,589.9414 L255.2617,643.9063 A0,0 0 0 0 255.2617,643.9063 L491.6885,643.9063 A0,0 0 0 0 491.6885,643.9063 L491.6885,537.9766 L481.6885,527.9766 L255.2617,527.9766 A0,0 0 0 0 255.2617,527.9766" fill="#E2EFDA" style="stroke:#70AD47;stroke-width:1;"/><path d="M481.6885,527.9766 L481.6885,537.9766 L491.6885,537.9766 L481.6885,527.9766" fill="#E2EFDA" style="stroke:#70AD47;stroke-width:1;"/><text fill="#000000" font-family="Verdana" font-size="13" lengthAdjust="spacing" textLength="128.9971" x="261.2617" y="545.0435">3 agents per round:</text><text fill="#000000" font-family="Verdana" font-size="13" lengthAdjust="spacing" textLength="132.3296" x="261.2617" y="560.1763">&#8226; Software Architect</text><text fill="#000000" font-family="Verdana" font-size="13" lengthAdjust="spacing" textLength="124.1919" x="261.2617" y="575.3091">&#8226; Senior Developer</text><text fill="#000000" font-family="Verdana" font-size="13" lengthAdjust="spacing" textLength="124.7886" x="261.2617" y="590.4419">&#8226; DevOps Engineer</text><text fill="#000000" font-family="Verdana" font-size="13" lengthAdjust="spacing" textLength="4.1323" x="261.2617" y="605.5747">&#160;</text><text fill="#000000" font-family="Verdana" font-size="13" lengthAdjust="spacing" textLength="215.4268" x="261.2617" y="620.7075">Informed by PRD &#8212; debate stack</text><text fill="#000000" font-family="Verdana" font-size="13" lengthAdjust="spacing" textLength="212.3608" x="261.2617" y="635.8403">decisions, constraints, trade-offs</text><rect fill="#F0F5FF" height="47.9375" rx="4" ry="4" style="stroke:#4472C4;stroke-width:1;" width="220.1152" x="15.1465" y="561.9727"/><text fill="#000000" font-family="Verdana" font-size="12" lengthAdjust="spacing" textLength="193.6406" x="25.1465" y="583.1113">Architecture &#8212; N debate rounds</text><text fill="#000000" font-family="Verdana" font-size="12" lengthAdjust="spacing" textLength="200.1152" x="25.1465" y="597.0801">(agents run in parallel per round)</text><path d="M211.8496,660.1758 L211.8496,683.875 L191.8496,687.875 L211.8496,691.875 L211.8496,715.5742 A0,0 0 0 0 211.8496,715.5742 L408.8003,715.5742 A0,0 0 0 0 408.8003,715.5742 L408.8003,670.1758 L398.8003,660.1758 L211.8496,660.1758 A0,0 0 0 0 211.8496,660.1758" fill="#E2EFDA" style="stroke:#70AD47;stroke-width:1;"/><path d="M398.8003,660.1758 L398.8003,670.1758 L408.8003,670.1758 L398.8003,660.1758" fill="#E2EFDA" style="stroke:#70AD47;stroke-width:1;"/><text fill="#000000" font-family="Verdana" font-size="13" lengthAdjust="spacing" textLength="175.9507" x="217.8496" y="677.2427">ADRs with "Restricts:" field</text><text fill="#000000" font-family="Verdana" font-size="13" lengthAdjust="spacing" textLength="149.9443" x="217.8496" y="692.3755">explicitly link decisions</text><text fill="#000000" font-family="Verdana" font-size="13" lengthAdjust="spacing" textLength="174.5669" x="217.8496" y="707.5083">to the REQs they constrain</text><rect fill="#F0F5FF" height="47.9375" rx="4" ry="4" style="stroke:#4472C4;stroke-width:1;" width="133.291" x="58.5586" y="663.9063"/><text fill="#000000" font-family="Verdana" font-size="12" lengthAdjust="spacing" textLength="113.291" x="68.5586" y="685.0449">Synthesis (Sonnet)</text><text fill="#000000" font-family="Verdana" font-size="12" lengthAdjust="spacing" textLength="110.127" x="68.5586" y="699.0137">&#8594; architecture.md</text><rect fill="#F0F5FF" height="33.9688" rx="4" ry="4" style="stroke:#4472C4;stroke-width:1;" width="238.4082" x="6" y="735.5742"/><text fill="#000000" font-family="Verdana" font-size="12" lengthAdjust="spacing" textLength="218.4082" x="16" y="756.7129">User reviews each ADR interactively</text><rect fill="#F0F5FF" height="33.9688" rx="4" ry="4" style="stroke:#4472C4;stroke-width:1;" width="202.5195" x="511.6885" y="527.9766"/><text fill="#000000" font-family="Verdana" font-size="12" lengthAdjust="spacing" textLength="182.5195" x="521.6885" y="549.1152">Create empty architecture.md</text><polygon fill="#FFFFFF" points="369.0762,775.543,381.0762,787.543,369.0762,799.543,357.0762,787.543,369.0762,775.543" style="stroke:#4472C4;stroke-width:1;"/><path d="M521.7686,809.543 L521.7686,840.8086 L501.7686,844.8086 L521.7686,848.8086 L521.7686,880.0742 A0,0 0 0 0 521.7686,880.0742 L801.9243,880.0742 A0,0 0 0 0 801.9243,880.0742 L801.9243,819.543 L791.9243,809.543 L521.7686,809.543 A0,0 0 0 0 521.7686,809.543" fill="#E2EFDA" style="stroke:#70AD47;stroke-width:1;"/><path d="M791.9243,809.543 L791.9243,819.543 L801.9243,819.543 L791.9243,809.543" fill="#E2EFDA" style="stroke:#70AD47;stroke-width:1;"/><text fill="#000000" font-family="Verdana" font-size="13" lengthAdjust="spacing" textLength="181.9238" x="527.7686" y="826.6099">Prepended before REQ-001:</text><text fill="#000000" font-family="Verdana" font-size="13" lengthAdjust="spacing" textLength="259.1558" x="527.7686" y="841.7427">&#8226; build full tech stack, no business logic</text><text fill="#000000" font-family="Verdana" font-size="13" lengthAdjust="spacing" textLength="190.4297" x="527.7686" y="856.8755">&#8226; all other REQs depend on it</text><text fill="#000000" font-family="Verdana" font-size="13" lengthAdjust="spacing" textLength="235.2378" x="527.7686" y="872.0083">&#8594; first thing the loop will implement</text><rect fill="#F0F5FF" height="33.9688" rx="4" ry="4" style="stroke:#4472C4;stroke-width:1;" width="265.3848" x="236.3838" y="827.8242"/><text fill="#000000" font-family="Verdana" font-size="12" lengthAdjust="spacing" textLength="245.3848" x="246.3838" y="848.9629">Auto-inject REQ-000 &#8212; Walking Skeleton</text><rect fill="#F0F5FF" height="33.9688" rx="4" ry="4" style="stroke:#4472C4;stroke-width:1;" width="246.8633" x="245.6445" y="900.0742"/><text fill="#000000" font-family="Verdana" font-size="12" lengthAdjust="spacing" textLength="226.8633" x="255.6445" y="921.2129">Ready &#8212; run "orvex" to start the loop</text><ellipse cx="369.0762" cy="965.043" fill="none" rx="11" ry="11" style="stroke:#000000;stroke-width:1;"/><ellipse cx="369.0762" cy="965.043" fill="#FFFFFF" rx="6" ry="6" style="stroke:#000000;stroke-width:1;"/><line style="stroke:#333333;stroke-width:1;" x1="369.0762" x2="369.0762" y1="71.6094" y2="91.6094"/><polygon fill="#333333" points="365.0762,81.6094,369.0762,91.6094,373.0762,81.6094,369.0762,85.6094" style="stroke:#333333;stroke-width:1;"/><line style="stroke:#333333;stroke-width:1;" x1="466.2983" x2="466.2983" y1="269.0781" y2="330.6406"/><polygon fill="#333333" points="462.2983,320.6406,466.2983,330.6406,470.2983,320.6406,466.2983,324.6406" style="stroke:#333333;stroke-width:1;"/><line style="stroke:#333333;stroke-width:1;" x1="357.0762" x2="271.854" y1="157.5781" y2="157.5781"/><line style="stroke:#333333;stroke-width:1;" x1="271.854" x2="271.854" y1="157.5781" y2="179.5781"/><polygon fill="#333333" points="267.854,169.5781,271.854,179.5781,275.854,169.5781,271.854,173.5781" style="stroke:#333333;stroke-width:1;"/><line style="stroke:#333333;stroke-width:1;" x1="381.0762" x2="466.2983" y1="157.5781" y2="157.5781"/><line style="stroke:#333333;stroke-width:1;" x1="466.2983" x2="466.2983" y1="157.5781" y2="221.1406"/><polygon fill="#333333" points="462.2983,211.1406,466.2983,221.1406,470.2983,211.1406,466.2983,215.1406" style="stroke:#333333;stroke-width:1;"/><line style="stroke:#333333;stroke-width:1;" x1="271.854" x2="271.854" y1="213.5469" y2="396.5781"/><line style="stroke:#333333;stroke-width:1;" x1="271.854" x2="357.0762" y1="396.5781" y2="396.5781"/><polygon fill="#333333" points="347.0762,392.5781,357.0762,396.5781,347.0762,400.5781,351.0762,396.5781" style="stroke:#333333;stroke-width:1;"/><line style="stroke:#333333;stroke-width:1;" x1="466.2983" x2="466.2983" y1="378.5781" y2="396.5781"/><line style="stroke:#333333;stroke-width:1;" x1="466.2983" x2="381.0762" y1="396.5781" y2="396.5781"/><polygon fill="#333333" points="391.0762,392.5781,381.0762,396.5781,391.0762,400.5781,387.0762,396.5781" style="stroke:#333333;stroke-width:1;"/><line style="stroke:#333333;stroke-width:1;" x1="369.0762" x2="369.0762" y1="125.5781" y2="145.5781"/><polygon fill="#333333" points="365.0762,135.5781,369.0762,145.5781,373.0762,135.5781,369.0762,139.5781" style="stroke:#333333;stroke-width:1;"/><line style="stroke:#333333;stroke-width:1;" x1="369.0762" x2="369.0762" y1="408.5781" y2="429.293"/><polygon fill="#333333" points="365.0762,419.293,369.0762,429.293,373.0762,419.293,369.0762,423.293" style="stroke:#333333;stroke-width:1;"/><line style="stroke:#333333;stroke-width:1;" x1="125.2041" x2="125.2041" y1="609.9102" y2="663.9063"/><polygon fill="#333333" points="121.2041,653.9063,125.2041,663.9063,129.2041,653.9063,125.2041,657.9063" style="stroke:#333333;stroke-width:1;"/><line style="stroke:#333333;stroke-width:1;" x1="125.2041" x2="125.2041" y1="711.8438" y2="735.5742"/><polygon fill="#333333" points="121.2041,725.5742,125.2041,735.5742,129.2041,725.5742,125.2041,729.5742" style="stroke:#333333;stroke-width:1;"/><line style="stroke:#333333;stroke-width:1;" x1="357.0762" x2="125.2041" y1="505.9766" y2="505.9766"/><line style="stroke:#333333;stroke-width:1;" x1="125.2041" x2="125.2041" y1="505.9766" y2="561.9727"/><polygon fill="#333333" points="121.2041,551.9727,125.2041,561.9727,129.2041,551.9727,125.2041,555.9727" style="stroke:#333333;stroke-width:1;"/><line style="stroke:#333333;stroke-width:1;" x1="381.0762" x2="612.9482" y1="505.9766" y2="505.9766"/><line style="stroke:#333333;stroke-width:1;" x1="612.9482" x2="612.9482" y1="505.9766" y2="527.9766"/><polygon fill="#333333" points="608.9482,517.9766,612.9482,527.9766,616.9482,517.9766,612.9482,521.9766" style="stroke:#333333;stroke-width:1;"/><line style="stroke:#333333;stroke-width:1;" x1="125.2041" x2="125.2041" y1="769.543" y2="787.543"/><line style="stroke:#333333;stroke-width:1;" x1="125.2041" x2="357.0762" y1="787.543" y2="787.543"/><polygon fill="#333333" points="347.0762,783.543,357.0762,787.543,347.0762,791.543,351.0762,787.543" style="stroke:#333333;stroke-width:1;"/><line style="stroke:#333333;stroke-width:1;" x1="612.9482" x2="612.9482" y1="561.9453" y2="787.543"/><line style="stroke:#333333;stroke-width:1;" x1="612.9482" x2="381.0762" y1="787.543" y2="787.543"/><polygon fill="#333333" points="391.0762,783.543,381.0762,787.543,391.0762,791.543,387.0762,787.543" style="stroke:#333333;stroke-width:1;"/><line style="stroke:#333333;stroke-width:1;" x1="369.0762" x2="369.0762" y1="463.2617" y2="493.9766"/><polygon fill="#333333" points="365.0762,483.9766,369.0762,493.9766,373.0762,483.9766,369.0762,487.9766" style="stroke:#333333;stroke-width:1;"/><line style="stroke:#333333;stroke-width:1;" x1="369.0762" x2="369.0762" y1="799.543" y2="827.8242"/><polygon fill="#333333" points="365.0762,817.8242,369.0762,827.8242,373.0762,817.8242,369.0762,821.8242" style="stroke:#333333;stroke-width:1;"/><line style="stroke:#333333;stroke-width:1;" x1="369.0762" x2="369.0762" y1="861.793" y2="900.0742"/><polygon fill="#333333" points="365.0762,890.0742,369.0762,900.0742,373.0762,890.0742,369.0762,894.0742" style="stroke:#333333;stroke-width:1;"/><line style="stroke:#333333;stroke-width:1;" x1="369.0762" x2="369.0762" y1="934.043" y2="954.043"/><polygon fill="#333333" points="365.0762,944.043,369.0762,954.043,373.0762,944.043,369.0762,948.043" style="stroke:#333333;stroke-width:1;"/><?plantuml-src lLHBRXD14DtFAOeW8Liao0b1GVO2EN6C8l49jX0iicdFrDY5szr3Tq-SOSMA0o1Em2NOSvISXAhss9au4M955bQcwzNlrQjw46QuG2Yq8fFuEPb2ERM0YKhdKsTBavrORHqiPnImOLTfe4iArV4Mxk6mCtms7Dw7j2v3LwCE3uyEJWxlGGr8BQp9Zlyn_Hh-zzZEsMLjV1h_6aPZ0zvfulJWT3ZeRwEQIOuw_S7XKGEHMnF6z0LXlncz3keCEdYU9862HdZhBl4ApWm5kFxw0yv70tW4VPTAZsae7S9BP0SLo9eayK6va2JTzvvZPEXJHnFqm6E3mjbFxD5B4igXrPOt0osEzsIHWT8ELLO1Nf4Flfq0T5zPbQs-oKmbRoz1xH5QkKC_MuUBK2bAYdl3AISguAeJVs5QQeecU72b0J8WRMgD6WgkBcBQFVONli3HT1Ru0-0fr5uRL3U-Nt_z2UVEPcKQuBKo37ARz_SVOOGU5VFIU3qkFHdq7lf6wSepCM8PIKZOxqeBXUME77ukoR6mEMa3SV2uooPVi6GWM42Lpi0oQsutWXpc71mu0WdtuecCb6Q4at5b6El9GsjiZS7GlZ3Ntxx3Yd3cqcIKhoVby99mwLSvHgVlcAp0CnNTegvwoIs6pgF3fcGXHwKf5W5-_mBCM2WBPKeckc8BFrc1Bnth1Iv9GVzC6byK8TcKUqiHqvMS45H3P2_Qmbttbkx-pyJ7DWzBnUaskMzCQ8YR6o2JP8l6tFdbRU7Xr4nvGlmU3MScjsw16KmgM0ksBfwt9fr7K8OfUPdcBgJy6nmVki0V_4-6UpRFRutvRtDkiXS7VgVh_c3aOKbX1ZkitU0e3Rwx0pcXpY80hmfDAL-12ZIP-KrnqSgIbBLcjSJzhcuAtYxnhiGuzRR4wkNcQrJ4dJxXWy3b8WkbkjlCMhtzCjWzCd89f9AzJgSJYVsWz5pEndYE6eCrsn9sM7086GRoLB3stPUnom0d9UaCyb9huAoprO1skIEsr2kjxPJI6iuIMstcYeqi1WVB2fHaCesSd0zCazGah6bh2-QU_MXHwBX7ZNNeZk8nb4P4npjMRl2EC1xlwoP2Z--jBVu0?></g></svg>