<?plantuml 1.2026.2beta3?><svg xmlns="http://www.w3.org/2000/svg" xmlns:xlink="http://www.w3.org/1999/xlink" contentStyleType="text/css" data-diagram-type="ACTIVITY" height="900px" preserveAspectRatio="none" style="width:1240px;height:900px;background:#FFFFFF;" version="1.1" viewBox="0 0 1240 900" width="1240px" zoomAndPan="magnify"><title>Orvex &#8212; Agent Loop: Checks &amp; Balances</title><defs/><g><g class="title" data-source-line="13"><text fill="#000000" font-family="Verdana" font-size="22" font-weight="bold" lengthAdjust="spacing" textLength="501.0264" x="368.2742" y="35.4209">Orvex &#8212; Agent Loop: Checks &amp; Balances</text></g><ellipse cx="465.863" cy="61.6094" fill="#FFFFFF" rx="10" ry="10" style="stroke:#000000;stroke-width:1;"/><rect fill="#F0F5FF" height="61.9063" rx="4" ry="4" style="stroke:#4472C4;stroke-width:1;" width="203.7207" x="364.0027" y="91.6094"/><text fill="#000000" font-family="Verdana" font-size="12" lengthAdjust="spacing" textLength="44.5371" x="374.0027" y="112.748">Startup</text><text fill="#000000" font-family="Verdana" font-size="12" lengthAdjust="spacing" textLength="183.7207" x="374.0027" y="126.7168">&#8226; sync requirements from PRD</text><text fill="#000000" font-family="Verdana" font-size="12" lengthAdjust="spacing" textLength="161.0566" x="374.0027" y="140.6855">&#8226; recover interrupted work</text><rect fill="#F0F5FF" height="47.9375" rx="4" ry="4" style="stroke:#4472C4;stroke-width:1;" width="218.9023" x="356.4119" y="229.2261"/><text fill="#000000" font-family="Verdana" font-size="12" lengthAdjust="spacing" textLength="96.8086" x="366.4119" y="250.3647">Select next REQ</text><text fill="#000000" font-family="Verdana" font-size="12" lengthAdjust="spacing" textLength="198.9023" x="366.4119" y="264.3335">P0 &#8594; P1 &#8594; P2, deps resolved first</text><polygon fill="#FFFFFF" points="465.863,297.1636,465.863,297.1636,477.863,309.1636,465.863,321.1636,465.863,321.1636,453.863,309.1636,465.863,297.1636" style="stroke:#4472C4;stroke-width:1;"/><text fill="#000000" font-family="Verdana" font-size="11" lengthAdjust="spacing" textLength="110.3867" x="343.4763" y="306.5693">same REQ failed 3&#215;</text><text fill="#000000" font-family="Verdana" font-size="11" lengthAdjust="spacing" textLength="53.856" x="477.863" y="306.5693">otherwise</text><path d="M288.9414,335.5815 L288.9414,344.1479 L268.9414,348.1479 L288.9414,352.1479 L288.9414,360.7144 A0,0 0 0 0 288.9414,360.7144 L490.7417,360.7144 A0,0 0 0 0 490.7417,360.7144 L490.7417,345.5815 L480.7417,335.5815 L288.9414,335.5815 A0,0 0 0 0 288.9414,335.5815" fill="#E2EFDA" style="stroke:#70AD47;stroke-width:1;"/><path d="M480.7417,335.5815 L480.7417,345.5815 L490.7417,345.5815 L480.7417,335.5815" fill="#E2EFDA" style="stroke:#70AD47;stroke-width:1;"/><text fill="#000000" font-family="Verdana" font-size="13" lengthAdjust="spacing" textLength="180.8003" x="294.9414" y="352.6484">prevents infinite retry loops</text><rect fill="#F0F5FF" height="33.9688" rx="4" ry="4" style="stroke:#4472C4;stroke-width:1;" width="235.9414" x="33" y="331.1636"/><text fill="#000000" font-family="Verdana" font-size="12" lengthAdjust="spacing" textLength="215.9414" x="43" y="352.3022">Auto-block &#8212; flag for human review</text><path d="M889.1333,331.1636 L889.1333,347.2964 L869.1333,351.2964 L889.1333,355.2964 L889.1333,371.4292 A0,0 0 0 0 889.1333,371.4292 L1120.3105,371.4292 A0,0 0 0 0 1120.3105,371.4292 L1120.3105,341.1636 L1110.3105,331.1636 L889.1333,331.1636 A0,0 0 0 0 889.1333,331.1636" fill="#E2EFDA" style="stroke:#70AD47;stroke-width:1;"/><path d="M1110.3105,331.1636 L1110.3105,341.1636 L1120.3105,341.1636 L1110.3105,331.1636" fill="#E2EFDA" style="stroke:#70AD47;stroke-width:1;"/><text fill="#000000" font-family="Verdana" font-size="13" lengthAdjust="spacing" textLength="97.2588" x="895.1333" y="348.2305">Full autonomy:</text><text fill="#000000" font-family="Verdana" font-size="13" lengthAdjust="spacing" textLength="210.1772" x="895.1333" y="363.3633">read &#183; edit &#183; test &#183; build &#183; commit</text><rect fill="#F0F5FF" height="33.9688" rx="4" ry="4" style="stroke:#4472C4;stroke-width:1;" width="176.7559" x="692.3774" y="334.312"/><text fill="#000000" font-family="Verdana" font-size="12" font-weight="bold" lengthAdjust="spacing" textLength="58.8164" x="702.3774" y="355.4507">[Sonnet]</text><text fill="#000000" font-family="Verdana" font-size="12" lengthAdjust="spacing" textLength="94.125" x="765.0083" y="355.4507">Implement REQ</text><path d="M945.2075,446.2339 L945.2075,477.4995 L925.2075,481.4995 L945.2075,485.4995 L945.2075,516.7651 A0,0 0 0 0 945.2075,516.7651 L1191.5747,516.7651 A0,0 0 0 0 1191.5747,516.7651 L1191.5747,456.2339 L1181.5747,446.2339 L945.2075,446.2339 A0,0 0 0 0 945.2075,446.2339" fill="#E2EFDA" style="stroke:#70AD47;stroke-width:1;"/><path d="M1181.5747,446.2339 L1181.5747,456.2339 L1191.5747,456.2339 L1181.5747,446.2339" fill="#E2EFDA" style="stroke:#70AD47;stroke-width:1;"/><text fill="#000000" font-family="Verdana" font-size="13" lengthAdjust="spacing" textLength="225.3672" x="951.2075" y="463.3008">No implementation &#8212; review only:</text><text fill="#000000" font-family="Verdana" font-size="13" lengthAdjust="spacing" textLength="173.8052" x="951.2075" y="478.4336">&#8226; acceptance criteria met?</text><text fill="#000000" font-family="Verdana" font-size="13" lengthAdjust="spacing" textLength="159.9038" x="951.2075" y="493.5664">&#8226; tests actually passing?</text><text fill="#000000" font-family="Verdana" font-size="13" lengthAdjust="spacing" textLength="184.2407" x="951.2075" y="508.6992">&#8226; logs show real work done?</text><rect fill="#F0F5FF" height="33.9688" rx="4" ry="4" style="stroke:#4472C4;stroke-width:1;" width="288.9043" x="636.3032" y="464.5151"/><text fill="#000000" font-family="Verdana" font-size="12" font-weight="bold" lengthAdjust="spacing" textLength="45.4453" x="646.3032" y="485.6538">[Opus]</text><text fill="#000000" font-family="Verdana" font-size="12" lengthAdjust="spacing" textLength="219.6445" x="695.563" y="485.6538">Audit all "done" REQs independently</text><polygon fill="#FFFFFF" points="780.7554,536.7651,780.7554,536.7651,792.7554,548.7651,780.7554,560.7651,780.7554,560.7651,768.7554,548.7651,780.7554,536.7651" style="stroke:#4472C4;stroke-width:1;"/><text fill="#000000" font-family="Verdana" font-size="11" lengthAdjust="spacing" textLength="69.0132" x="699.7422" y="546.1709">issues found</text><text fill="#000000" font-family="Verdana" font-size="11" lengthAdjust="spacing" textLength="41.5347" x="792.7554" y="546.1709">all pass</text><rect fill="#F0F5FF" height="47.9375" rx="4" ry="4" style="stroke:#4472C4;stroke-width:1;" width="148.4551" x="578.0298" y="570.7651"/><text fill="#000000" font-family="Verdana" font-size="12" lengthAdjust="spacing" textLength="121.2363" x="588.0298" y="591.9038">Revert done &#8594; open</text><text fill="#000000" font-family="Verdana" font-size="12" lengthAdjust="spacing" textLength="128.4551" x="588.0298" y="605.8726">or block permanently</text><rect fill="#F0F5FF" height="33.9688" rx="4" ry="4" style="stroke:#4472C4;stroke-width:1;" width="243.0313" x="530.7417" y="638.7026"/><text fill="#000000" font-family="Verdana" font-size="12" lengthAdjust="spacing" textLength="223.0313" x="540.7417" y="659.8413">Tighten audit interval &#8594; every 3 iters</text><rect fill="#F0F5FF" height="33.9688" rx="4" ry="4" style="stroke:#4472C4;stroke-width:1;" width="230.9609" x="793.7729" y="570.7651"/><text fill="#000000" font-family="Verdana" font-size="12" lengthAdjust="spacing" textLength="210.9609" x="803.7729" y="591.9038">Relax audit interval &#8594; every 5 iters</text><polygon fill="#FFFFFF" points="780.7554,678.6714,792.7554,690.6714,780.7554,702.6714,768.7554,690.6714,780.7554,678.6714" style="stroke:#4472C4;stroke-width:1;"/><polygon fill="#FFFFFF" points="780.7554,391.4292,780.7554,391.4292,792.7554,403.4292,780.7554,415.4292,780.7554,415.4292,768.7554,403.4292,780.7554,391.4292" style="stroke:#4472C4;stroke-width:1;"/><text fill="#000000" font-family="Verdana" font-size="11" lengthAdjust="spacing" textLength="140.1157" x="784.7554" y="425.6396">audit checkpoint reached</text><text fill="#000000" font-family="Verdana" font-size="11" lengthAdjust="spacing" textLength="98.5005" x="784.7554" y="438.4443">every N iterations</text><polygon fill="#FFFFFF" points="780.7554,722.6714,792.7554,734.6714,780.7554,746.6714,768.7554,734.6714,780.7554,722.6714" style="stroke:#4472C4;stroke-width:1;"/><polygon fill="#FFFFFF" points="465.863,752.6714,477.863,764.6714,465.863,776.6714,453.863,764.6714,465.863,752.6714" style="stroke:#4472C4;stroke-width:1;"/><polygon fill="#FFFFFF" points="465.863,173.5156,465.863,173.5156,477.863,185.5156,465.863,197.5156,465.863,197.5156,453.863,185.5156,465.863,173.5156" style="stroke:#4472C4;stroke-width:1;"/><text fill="#000000" font-family="Verdana" font-size="11" lengthAdjust="spacing" textLength="113.0776" x="469.863" y="207.7261">open REQs available</text><text fill="#000000" font-family="Verdana" font-size="11" lengthAdjust="spacing" textLength="121.3867" x="332.4763" y="182.9214">all requirements done</text><rect fill="#F0F5FF" height="33.9688" rx="4" ry="4" style="stroke:#4472C4;stroke-width:1;" width="51.5703" x="440.0779" y="818.6714"/><text fill="#000000" font-family="Verdana" font-size="12" lengthAdjust="spacing" textLength="31.5703" x="450.0779" y="839.8101">Done</text><ellipse cx="465.863" cy="883.6401" fill="none" rx="11" ry="11" style="stroke:#000000;stroke-width:1;"/><ellipse cx="465.863" cy="883.6401" fill="#FFFFFF" rx="6" ry="6" style="stroke:#000000;stroke-width:1;"/><line style="stroke:#333333;stroke-width:1;" x1="465.863" x2="465.863" y1="71.6094" y2="91.6094"/><polygon fill="#333333" points="461.863,81.6094,465.863,91.6094,469.863,81.6094,465.863,85.6094" style="stroke:#333333;stroke-width:1;"/><line style="stroke:#333333;stroke-width:1;" x1="652.2573" x2="652.2573" y1="618.7026" y2="638.7026"/><polygon fill="#333333" points="648.2573,628.7026,652.2573,638.7026,656.2573,628.7026,652.2573,632.7026" style="stroke:#333333;stroke-width:1;"/><line style="stroke:#333333;stroke-width:1;" x1="768.7554" x2="652.2573" y1="548.7651" y2="548.7651"/><line style="stroke:#333333;stroke-width:1;" x1="652.2573" x2="652.2573" y1="548.7651" y2="570.7651"/><polygon fill="#333333" points="648.2573,560.7651,652.2573,570.7651,656.2573,560.7651,652.2573,564.7651" style="stroke:#333333;stroke-width:1;"/><line style="stroke:#333333;stroke-width:1;" x1="792.7554" x2="909.2534" y1="548.7651" y2="548.7651"/><line style="stroke:#333333;stroke-width:1;" x1="909.2534" x2="909.2534" y1="548.7651" y2="570.7651"/><polygon fill="#333333" points="905.2534,560.7651,909.2534,570.7651,913.2534,560.7651,909.2534,564.7651" style="stroke:#333333;stroke-width:1;"/><line style="stroke:#333333;stroke-width:1;" x1="652.2573" x2="652.2573" y1="672.6714" y2="690.6714"/><line style="stroke:#333333;stroke-width:1;" x1="652.2573" x2="768.7554" y1="690.6714" y2="690.6714"/><polygon fill="#333333" points="758.7554,686.6714,768.7554,690.6714,758.7554,694.6714,762.7554,690.6714" style="stroke:#333333;stroke-width:1;"/><line style="stroke:#333333;stroke-width:1;" x1="909.2534" x2="909.2534" y1="604.7339" y2="690.6714"/><line style="stroke:#333333;stroke-width:1;" x1="909.2534" x2="792.7554" y1="690.6714" y2="690.6714"/><polygon fill="#333333" points="802.7554,686.6714,792.7554,690.6714,802.7554,694.6714,798.7554,690.6714" style="stroke:#333333;stroke-width:1;"/><line style="stroke:#333333;stroke-width:1;" x1="780.7554" x2="780.7554" y1="498.4839" y2="536.7651"/><polygon fill="#333333" points="776.7554,526.7651,780.7554,536.7651,784.7554,526.7651,780.7554,530.7651" style="stroke:#333333;stroke-width:1;"/><line style="stroke:#333333;stroke-width:1;" x1="780.7554" x2="780.7554" y1="415.4292" y2="464.5151"/><polygon fill="#333333" points="776.7554,454.5151,780.7554,464.5151,784.7554,454.5151,780.7554,458.5151" style="stroke:#333333;stroke-width:1;"/><line style="stroke:#333333;stroke-width:1;" x1="792.7554" x2="1201.5747" y1="403.4292" y2="403.4292"/><polygon fill="#333333" points="1197.5747,564.4526,1201.5747,574.4526,1205.5747,564.4526,1201.5747,568.4526" style="stroke:#333333;stroke-width:1;"/><line style="stroke:#333333;stroke-width:1;" x1="1201.5747" x2="1201.5747" y1="403.4292" y2="734.6714"/><line style="stroke:#333333;stroke-width:1;" x1="1201.5747" x2="792.7554" y1="734.6714" y2="734.6714"/><polygon fill="#333333" points="802.7554,730.6714,792.7554,734.6714,802.7554,738.6714,798.7554,734.6714" style="stroke:#333333;stroke-width:1;"/><line style="stroke:#333333;stroke-width:1;" x1="780.7554" x2="780.7554" y1="702.6714" y2="722.6714"/><polygon fill="#333333" points="776.7554,712.6714,780.7554,722.6714,784.7554,712.6714,780.7554,716.6714" style="stroke:#333333;stroke-width:1;"/><line style="stroke:#333333;stroke-width:1;" x1="780.7554" x2="780.7554" y1="368.2808" y2="391.4292"/><polygon fill="#333333" points="776.7554,381.4292,780.7554,391.4292,784.7554,381.4292,780.7554,385.4292" style="stroke:#333333;stroke-width:1;"/><line style="stroke:#333333;stroke-width:1;" x1="453.863" x2="150.9707" y1="309.1636" y2="309.1636"/><line style="stroke:#333333;stroke-width:1;" x1="150.9707" x2="150.9707" y1="309.1636" y2="331.1636"/><polygon fill="#333333" points="146.9707,321.1636,150.9707,331.1636,154.9707,321.1636,150.9707,325.1636" style="stroke:#333333;stroke-width:1;"/><line style="stroke:#333333;stroke-width:1;" x1="477.863" x2="780.7554" y1="309.1636" y2="309.1636"/><line style="stroke:#333333;stroke-width:1;" x1="780.7554" x2="780.7554" y1="309.1636" y2="334.312"/><polygon fill="#333333" points="776.7554,324.312,780.7554,334.312,784.7554,324.312,780.7554,328.312" style="stroke:#333333;stroke-width:1;"/><line style="stroke:#333333;stroke-width:1;" x1="150.9707" x2="150.9707" y1="365.1323" y2="764.6714"/><line style="stroke:#333333;stroke-width:1;" x1="150.9707" x2="453.863" y1="764.6714" y2="764.6714"/><polygon fill="#333333" points="443.863,760.6714,453.863,764.6714,443.863,768.6714,447.863,764.6714" style="stroke:#333333;stroke-width:1;"/><line style="stroke:#333333;stroke-width:1;" x1="780.7554" x2="780.7554" y1="746.6714" y2="764.6714"/><line style="stroke:#333333;stroke-width:1;" x1="780.7554" x2="477.863" y1="764.6714" y2="764.6714"/><polygon fill="#333333" points="487.863,760.6714,477.863,764.6714,487.863,768.6714,483.863,764.6714" style="stroke:#333333;stroke-width:1;"/><line style="stroke:#333333;stroke-width:1;" x1="465.863" x2="465.863" y1="277.1636" y2="297.1636"/><polygon fill="#333333" points="461.863,287.1636,465.863,297.1636,469.863,287.1636,465.863,291.1636" style="stroke:#333333;stroke-width:1;"/><line style="stroke:#333333;stroke-width:1;" x1="465.863" x2="465.863" y1="197.5156" y2="229.2261"/><polygon fill="#333333" points="461.863,219.2261,465.863,229.2261,469.863,219.2261,465.863,223.2261" style="stroke:#333333;stroke-width:1;"/><line style="stroke:#333333;stroke-width:1;" x1="465.863" x2="465.863" y1="776.6714" y2="786.6714"/><line style="stroke:#333333;stroke-width:1;" x1="465.863" x2="1219.5747" y1="786.6714" y2="786.6714"/><polygon fill="#333333" points="1215.5747,499.9487,1219.5747,489.9487,1223.5747,499.9487,1219.5747,495.9487" style="stroke:#333333;stroke-width:1;"/><line style="stroke:#333333;stroke-width:1;" x1="1219.5747" x2="1219.5747" y1="185.5156" y2="786.6714"/><line style="stroke:#333333;stroke-width:1;" x1="1219.5747" x2="477.863" y1="185.5156" y2="185.5156"/><polygon fill="#333333" points="487.863,181.5156,477.863,185.5156,487.863,189.5156,483.863,185.5156" style="stroke:#333333;stroke-width:1;"/><line style="stroke:#333333;stroke-width:1;" x1="453.863" x2="19" y1="185.5156" y2="185.5156"/><polygon fill="#333333" points="15,485.9487,19,495.9487,23,485.9487,19,489.9487" style="stroke:#333333;stroke-width:1;"/><line style="stroke:#333333;stroke-width:1;" x1="19" x2="19" y1="185.5156" y2="798.6714"/><line style="stroke:#333333;stroke-width:1;" x1="19" x2="465.863" y1="798.6714" y2="798.6714"/><line style="stroke:#333333;stroke-width:1;" x1="465.863" x2="465.863" y1="798.6714" y2="818.6714"/><polygon fill="#333333" points="461.863,808.6714,465.863,818.6714,469.863,808.6714,465.863,812.6714" style="stroke:#333333;stroke-width:1;"/><line style="stroke:#333333;stroke-width:1;" x1="465.863" x2="465.863" y1="153.5156" y2="173.5156"/><polygon fill="#333333" points="461.863,163.5156,465.863,173.5156,469.863,163.5156,465.863,167.5156" style="stroke:#333333;stroke-width:1;"/><line style="stroke:#333333;stroke-width:1;" x1="465.863" x2="465.863" y1="852.6401" y2="872.6401"/><polygon fill="#333333" points="461.863,862.6401,465.863,872.6401,469.863,862.6401,465.863,866.6401" style="stroke:#333333;stroke-width:1;"/><?plantuml-src ZLHDRnCn4BtlhnYAX9e8f7waAjeSKDeq4XAYfU56E3YxiuaLxzZOtgJXr1C_025nvqzmXt_INyBOkwcoQK7qugJpvhrvp-CyyNCi4OmIaXAta6I45ILCHRQOMLrHVgwLjh2QIuzRTP5vkPH-VRQ3Upew69sCHeyXjStHDgXUx_JelFS8QYX5gIa_-q_v3VpVtDRgLLCyZdzRHT8U7vYuEBeO3GUxg6sHquF1i7UwXIWq-R7yZ72upTwGMa8BBvF4IwyGBkqIR-3kzXiCPaWUtcXjKZYVOxPmy0pEX1AKeKiIvuNrIPAEmrcP2TtT_W2tfWmiVggavOiZxw2mkeIhws5TjvZf9Sj9ycXjPJpciD9sqKyIJf7bzpiW7UnhWmJN5-ySYAMGIamLTf8481sZmim3uOqFzGbT7S3TbwzmTLWVHyyXH-DOo6crPFP2MkVxeLSMWPqtYc3V2LuhxeU2sHbr_FjxXo4iCAYyVZ5LEbl440ebPXoVXNbL2cBQfSHLFq93x63bREvJC5o8TYKLacGeeBThK9oUOpGgnzuqYzkLTBKN5kjsFumr4VgFtIwyBesAeON1TYNYLu1HfHG87f5qkKwRVreKEVpw2PXB7qwFBfxJIgfOo7HPofe2AO-izG3RaOWgj6VXeetc-mcq_2sV45jZAs-1RLdXfIRNQPI3WKjJkJ3-8FOBdcylruHxzVL9ukjWKRQbrlscxO4jWBSQvCP_r8Zfrt639dLl5Y3iaSWoD3vi8cGsp2K5bEXVjK0X1nTUOyLJhS48voJDsXYbPmxSNA-2NHLt4SBu6rGxhtPYqhaAUSF3C-hSiwRN8IyVMU9EXbsU4AzGlLK6BMzIAmzkUX_IODBw5kBpMF8yeR-E_pZ6xpOjzKA5j8EjbheIDt-dETcXeLmMITBws7pWetcIGQNrfeCrNk5qo6UVVmYq-GC0?></g></svg>